<svg
	id="visual"
	viewBox="0 0 900 600"
	width="900"
	height="600"
	xmlns="http://www.w3.org/2000/svg"
	xmlns:xlink="http://www.w3.org/1999/xlink"
	version="1.1"
>
	<rect x="0" y="0" width="900" height="600" fill="#111827"></rect>
	<path
		d="M0 345L16.7 351.8C33.3 358.7 66.7 372.3 100 381.8C133.3 391.3 166.7 396.7 200 399.2C233.3 401.7 266.7 401.3 300 396.7C333.3 392 366.7 383 400 374.5C433.3 366 466.7 358 500 363C533.3 368 566.7 386 600 389C633.3 392 666.7 380 700 379.8C733.3 379.7 766.7 391.3 800 390.5C833.3 389.7 866.7 376.3 883.3 369.7L900 363L900 601L883.3 601C866.7 601 833.3 601 800 601C766.7 601 733.3 601 700 601C666.7 601 633.3 601 600 601C566.7 601 533.3 601 500 601C466.7 601 433.3 601 400 601C366.7 601 333.3 601 300 601C266.7 601 233.3 601 200 601C166.7 601 133.3 601 100 601C66.7 601 33.3 601 16.7 601L0 601Z"
		fill="#34d399"
	></path>
	<path
		d="M0 408L16.7 414.3C33.3 420.7 66.7 433.3 100 432.5C133.3 431.7 166.7 417.3 200 405.7C233.3 394 266.7 385 300 384.7C333.3 384.3 366.7 392.7 400 392.5C433.3 392.3 466.7 383.7 500 388.7C533.3 393.7 566.7 412.3 600 420.2C633.3 428 666.7 425 700 421C733.3 417 766.7 412 800 406C833.3 400 866.7 393 883.3 389.5L900 386L900 601L883.3 601C866.7 601 833.3 601 800 601C766.7 601 733.3 601 700 601C666.7 601 633.3 601 600 601C566.7 601 533.3 601 500 601C466.7 601 433.3 601 400 601C366.7 601 333.3 601 300 601C266.7 601 233.3 601 200 601C166.7 601 133.3 601 100 601C66.7 601 33.3 601 16.7 601L0 601Z"
		fill="#2ec991"
	></path>
	<path
		d="M0 459L16.7 458.7C33.3 458.3 66.7 457.7 100 455.2C133.3 452.7 166.7 448.3 200 449.2C233.3 450 266.7 456 300 460.3C333.3 464.7 366.7 467.3 400 458.7C433.3 450 466.7 430 500 420.5C533.3 411 566.7 412 600 419.8C633.3 427.7 666.7 442.3 700 443.5C733.3 444.7 766.7 432.3 800 428.3C833.3 424.3 866.7 428.7 883.3 430.8L900 433L900 601L883.3 601C866.7 601 833.3 601 800 601C766.7 601 733.3 601 700 601C666.7 601 633.3 601 600 601C566.7 601 533.3 601 500 601C466.7 601 433.3 601 400 601C366.7 601 333.3 601 300 601C266.7 601 233.3 601 200 601C166.7 601 133.3 601 100 601C66.7 601 33.3 601 16.7 601L0 601Z"
		fill="#27be89"
	></path>
	<path
		d="M0 469L16.7 468.3C33.3 467.7 66.7 466.3 100 467.7C133.3 469 166.7 473 200 474.3C233.3 475.7 266.7 474.3 300 470.5C333.3 466.7 366.7 460.3 400 460C433.3 459.7 466.7 465.3 500 472.8C533.3 480.3 566.7 489.7 600 492C633.3 494.3 666.7 489.7 700 489.5C733.3 489.3 766.7 493.7 800 491.7C833.3 489.7 866.7 481.3 883.3 477.2L900 473L900 601L883.3 601C866.7 601 833.3 601 800 601C766.7 601 733.3 601 700 601C666.7 601 633.3 601 600 601C566.7 601 533.3 601 500 601C466.7 601 433.3 601 400 601C366.7 601 333.3 601 300 601C266.7 601 233.3 601 200 601C166.7 601 133.3 601 100 601C66.7 601 33.3 601 16.7 601L0 601Z"
		fill="#20b481"
	></path>
	<path
		d="M0 513L16.7 514C33.3 515 66.7 517 100 514.5C133.3 512 166.7 505 200 504.3C233.3 503.7 266.7 509.3 300 513.2C333.3 517 366.7 519 400 513.7C433.3 508.3 466.7 495.7 500 491.5C533.3 487.3 566.7 491.7 600 492.3C633.3 493 666.7 490 700 494.7C733.3 499.3 766.7 511.7 800 511.8C833.3 512 866.7 500 883.3 494L900 488L900 601L883.3 601C866.7 601 833.3 601 800 601C766.7 601 733.3 601 700 601C666.7 601 633.3 601 600 601C566.7 601 533.3 601 500 601C466.7 601 433.3 601 400 601C366.7 601 333.3 601 300 601C266.7 601 233.3 601 200 601C166.7 601 133.3 601 100 601C66.7 601 33.3 601 16.7 601L0 601Z"
		fill="#19aa79"
	></path>
	<path
		d="M0 511L16.7 515.7C33.3 520.3 66.7 529.7 100 529.7C133.3 529.7 166.7 520.3 200 519.5C233.3 518.7 266.7 526.3 300 526.3C333.3 526.3 366.7 518.7 400 520.2C433.3 521.7 466.7 532.3 500 534C533.3 535.7 566.7 528.3 600 530C633.3 531.7 666.7 542.3 700 546.3C733.3 550.3 766.7 547.7 800 541.2C833.3 534.7 866.7 524.3 883.3 519.2L900 514L900 601L883.3 601C866.7 601 833.3 601 800 601C766.7 601 733.3 601 700 601C666.7 601 633.3 601 600 601C566.7 601 533.3 601 500 601C466.7 601 433.3 601 400 601C366.7 601 333.3 601 300 601C266.7 601 233.3 601 200 601C166.7 601 133.3 601 100 601C66.7 601 33.3 601 16.7 601L0 601Z"
		fill="#10a071"
	></path>
	<path
		d="M0 577L16.7 576.3C33.3 575.7 66.7 574.3 100 570.2C133.3 566 166.7 559 200 555.3C233.3 551.7 266.7 551.3 300 551.2C333.3 551 366.7 551 400 553.5C433.3 556 466.7 561 500 564.2C533.3 567.3 566.7 568.7 600 569.3C633.3 570 666.7 570 700 567.2C733.3 564.3 766.7 558.7 800 559.5C833.3 560.3 866.7 567.7 883.3 571.3L900 575L900 601L883.3 601C866.7 601 833.3 601 800 601C766.7 601 733.3 601 700 601C666.7 601 633.3 601 600 601C566.7 601 533.3 601 500 601C466.7 601 433.3 601 400 601C366.7 601 333.3 601 300 601C266.7 601 233.3 601 200 601C166.7 601 133.3 601 100 601C66.7 601 33.3 601 16.7 601L0 601Z"
		fill="#059669"
	></path>
</svg>